<svg xmlns="http://www.w3.org/2000/svg" width="256" height="256" viewBox="0 0 100 100"><path fill="#373636" d="M11.68 53.80L11.68 63.66Q11.32 63.79 10.74 63.91Q10.15 64.02 9.43 64.02L9.43 64.02Q8.04 64.02 7.43 63.50Q6.82 62.98 6.82 61.77L6.82 61.77L6.82 38.55Q6.82 37.78 7.25 37.36Q7.68 36.93 8.44 36.70L8.44 36.70Q9.84 36.21 11.77 36.03Q13.71 35.85 15.64 35.85L15.64 35.85Q21.49 35.85 24.35 38.21Q27.21 40.57 27.21 44.85L27.21 44.85Q27.21 47.82 25.65 49.91Q24.10 52.00 21.22 53.04L21.22 53.04Q22.30 54.39 23.34 55.72Q24.37 57.04 25.29 58.23Q26.22 59.43 26.96 60.40Q27.70 61.36 28.15 61.99L28.15 61.99Q27.93 63.03 27.16 63.57Q26.40 64.11 25.50 64.11L25.50 64.11Q24.42 64.11 23.79 63.59Q23.16 63.07 22.53 62.17L22.53 62.17L16.72 53.80L11.68 53.80ZM11.64 49.93L16.00 49.93Q18.93 49.93 20.64 48.67Q22.35 47.41 22.35 44.85L22.35 44.85Q22.35 42.33 20.61 41.07Q18.88 39.81 15.51 39.81L15.51 39.81Q14.47 39.81 13.46 39.90Q12.45 39.99 11.64 40.12L11.64 40.12L11.64 49.93ZM38.41 63.66L38.41 63.66Q38.10 63.79 37.49 63.91Q36.88 64.02 36.21 64.02L36.21 64.02Q34.81 64.02 34.20 63.50Q33.60 62.98 33.60 61.77L33.60 61.77L33.60 36.43Q33.96 36.34 34.56 36.23Q35.17 36.12 35.85 36.12L35.85 36.12Q37.15 36.12 37.78 36.61Q38.41 37.11 38.41 38.37L38.41 38.37L38.41 63.66ZM66.22 38.19L66.22 38.19Q66.22 39.18 63.97 43.20Q61.72 47.23 57.36 53.89L57.36 53.89L57.36 63.66Q57.00 63.79 56.39 63.91Q55.78 64.02 55.15 64.02L55.15 64.02Q53.76 64.02 53.17 63.50Q52.59 62.98 52.59 61.81L52.59 61.81L52.59 53.94Q51.37 52.14 50.02 50.05Q48.67 47.95 47.37 45.81Q46.06 43.68 44.91 41.63Q43.77 39.58 42.96 37.83L42.96 37.83Q43.23 37.20 43.86 36.68Q44.49 36.16 45.52 36.16L45.52 36.16Q46.60 36.16 47.23 36.68Q47.86 37.20 48.54 38.41L48.54 38.41Q49.08 39.36 49.93 40.93Q50.79 42.51 51.73 44.20Q52.68 45.88 53.53 47.39Q54.39 48.90 54.88 49.71L54.88 49.71L55.06 49.71Q56.05 47.91 56.95 46.27Q57.85 44.62 58.66 43.05Q59.47 41.47 60.28 39.90Q61.09 38.32 61.90 36.66L61.90 36.66Q62.31 36.43 62.87 36.30Q63.43 36.16 63.93 36.16L63.93 36.16Q64.96 36.16 65.59 36.70Q66.22 37.24 66.22 38.19ZM87.91 62.08L86.20 56.91L75.22 56.91L73.02 63.79Q72.61 63.97 72.16 64.06Q71.71 64.15 71.08 64.15L71.08 64.15Q69.96 64.15 69.24 63.66Q68.52 63.16 68.52 62.17L68.52 62.17Q68.52 61.68 68.65 61.21Q68.79 60.73 69.01 60.15L69.01 60.15Q69.60 58.26 70.65 55.27Q71.71 52.27 72.90 48.94Q74.10 45.61 75.31 42.40Q76.53 39.18 77.43 36.88L77.43 36.88Q77.88 36.61 78.82 36.37Q79.77 36.12 80.76 36.12L80.76 36.12Q82.06 36.12 83.10 36.48Q84.13 36.84 84.49 37.74L84.49 37.74Q85.48 40.30 86.65 43.56Q87.82 46.83 88.99 50.29Q90.16 53.76 91.24 57.09Q92.32 60.42 93.18 63.12L93.18 63.12Q92.77 63.57 92.12 63.86Q91.47 64.15 90.57 64.15L90.57 64.15Q89.35 64.15 88.81 63.68Q88.27 63.21 87.91 62.08L87.91 62.08ZM80.94 40.30L80.71 40.30Q80.26 41.52 79.72 43.05Q79.18 44.58 78.60 46.27Q78.01 47.95 77.43 49.69Q76.84 51.42 76.30 53.04L76.30 53.04L85.17 53.04Q84.58 51.24 83.97 49.42Q83.37 47.59 82.80 45.93Q82.24 44.26 81.75 42.80Q81.25 41.34 80.94 40.30L80.94 40.30Z"></path></svg>